<svg xmlns="http://www.w3.org/2000/svg" viewBox="0 0 16 16" width="17" height="17"><path d="m15.694 13.627-3.052-8.283a.98.98 0 0 0-.875-.544.98.98 0 0 0-.867.558l-2.873 8.314a.56.56 0 0 0 .432.694c.324.088.714-.053.83-.384l.77-2.363h3.488l.817 2.356c.142.338.512.485.856.403.333-.073.601-.41.474-.75Zm-2.546-3.178h-2.712c.469-1.392.84-2.774 1.32-4.221.4 1.425.917 2.819 1.392 4.221M7.43 4.392l.01-.06h1.126a.61.61 0 0 0 .59-.591.61.61 0 0 0-.59-.592H5.568v-.827a.61.61 0 0 0-.591-.591.61.61 0 0 0-.591.591v.826H1.392a.61.61 0 0 0-.591.592c0 .313.278.591.591.591H2.56l.01.061a8.3 8.3 0 0 0 1.579 3.731l.041.054-.05.044a6.4 6.4 0 0 1-2.846 1.502.63.63 0 0 0-.495.606c0 .36.317.639.668.562a7.4 7.4 0 0 0 3.461-1.803l.05-.046.05.046a7.3 7.3 0 0 0 3.227 1.733l.07.017.422-1.114-.088-.022a6.5 6.5 0 0 1-2.843-1.48l-.05-.045.041-.053a8.4 8.4 0 0 0 1.624-3.732Zm-1.214-.06-.014.085A6.3 6.3 0 0 1 5.036 7.15l-.06.078-.056-.081a7.4 7.4 0 0 1-1.165-2.728l-.018-.087z"/></svg>
